<svg xmlns="http://www.w3.org/2000/svg" width="1000" height="1000"><rect width="1000" height="1000" x="0" y="0" fill="#FFFFFF" id="backgorund"/><g transform="translate(20,20)" id="viz"><g id="nodes"><g transform="translate(481,481)"><path id="p_1443" d="M-8.817456953860942e-14,480A480,480,0,1,1,8.817456953860942e-14,-480A480,480,0,1,1,-8.817456953860942e-14,480Z" fill="none" stroke="#ccc"/></g><g transform="translate(304.4124203484986,538.0937147017481)" id="Asia"><path id="p_1099.7439264224474" d="M-4.707011865368292e-14,256.23779137220066A256.23779137220066,256.23779137220066,0,1,1,4.707011865368292e-14,-256.23779137220066A256.23779137220066,256.23779137220066,0,1,1,-4.707011865368292e-14,256.23779137220066Z" fill="none" stroke="#ccc"/></g><g transform="translate(717.8735903082852,538.0937147017481)" id="Africa"><path id="p_1412.348260927447" d="M-2.854301854690752e-14,155.3809559174138A155.3809559174138,155.3809559174138,0,1,1,2.854301854690752e-14,-155.3809559174138A155.3809559174138,155.3809559174138,0,1,1,-2.854301854690752e-14,155.3809559174138Z" fill="none" stroke="#ccc"/></g><g transform="translate(594.8987986604526,803.9575657693642)" id="Europe"><path id="p_1535.5602578490063" d="M-2.4928400806146572e-14,135.70389341918937A135.70389341918937,135.70389341918937,0,1,1,2.4928400806146572e-14,-135.70389341918937A135.70389341918937,135.70389341918937,0,1,1,-2.4928400806146572e-14,135.70389341918937Z" fill="none" stroke="#ccc"/></g><g transform="translate(593.016210691099,281.66601070086267)" id="South America"><path id="p_1003.6684720668463" d="M-2.3510692833580238e-14,127.98625067488464A127.98625067488464,127.98625067488464,0,1,1,2.3510692833580238e-14,-127.98625067488464A127.98625067488464,127.98625067488464,0,1,1,-2.3510692833580238e-14,127.98625067488464Z" fill="none" stroke="#ccc"/></g><g transform="translate(365.5783860121578,153.72452449818854)" id="North America"><path id="p_651.4282330849494" d="M-2.4087330986722766e-14,131.12532257460305A131.12532257460305,131.12532257460305,0,1,1,2.4087330986722766e-14,-131.12532257460305A131.12532257460305,131.12532257460305,0,1,1,-2.4087330986722766e-14,131.12532257460305Z" fill="none" stroke="#ccc"/></g><g transform="translate(204.3375749604557,538.0937147017481)" id="China"><path id="p_897.7518129761895" d="M-2.8348220237882548e-14,154.32052331398563A154.32052331398563,154.32052331398563,0,1,1,2.8348220237882548e-14,-154.32052331398563A154.32052331398563,154.32052331398563,0,1,1,-2.8348220237882548e-14,154.32052331398563Z" fill="none" stroke="#ccc"/></g><g transform="translate(459.6541549975703,538.0937147017481)" id="India"><path id="p_1097.9015037522754" d="M-1.8214227085017236e-14,99.15363405295682A99.15363405295682,99.15363405295682,0,1,1,1.8214227085017236e-14,-99.15363405295682A99.15363405295682,99.15363405295682,0,1,1,-1.8214227085017236e-14,99.15363405295682Z" fill="none" stroke="#ccc"/></g><g transform="translate(373.4181489975278,677.7339637701829)" id="Pakistan"><path id="p_1115.2781078558294" d="M-1.1596057174148412e-14,63.125995088118685A63.125995088118685,63.125995088118685,0,1,1,1.1596057174148412e-14,-63.125995088118685A63.125995088118685,63.125995088118685,0,1,1,-1.1596057174148412e-14,63.125995088118685Z" fill="none" stroke="#ccc"/></g><g transform="translate(370.21792507530637,418.53207146965497)" id="Japan"><path id="p_838.0651107202832" d="M-8.875342488787025e-15,48.31511417532187A48.31511417532187,48.31511417532187,0,1,1,8.875342488787025e-15,-48.31511417532187A48.31511417532187,48.31511417532187,0,1,1,-8.875342488787025e-15,48.31511417532187Z" fill="none" stroke="#ccc"/></g><g transform="translate(296.8110392791581,362.8647465560516)" id="Indonesia"><path id="p_702.6454542296742" d="M-7.70970300908352e-15,41.96966839446451A41.96966839446451,41.96966839446451,0,1,1,7.70970300908352e-15,-41.96966839446451A41.96966839446451,41.96966839446451,0,1,1,-7.70970300908352e-15,41.96966839446451Z" fill="none" stroke="#ccc"/></g><g transform="translate(643.8378974776186,541.9489010250954)" id="Nigeria"><path id="p_1241.631540308304" d="M-1.0074815625341788e-14,54.84474180558981A54.84474180558981,54.84474180558981,0,1,1,1.0074815625341788e-14,-54.84474180558981A54.84474180558981,54.84474180558981,0,1,1,-1.0074815625341788e-14,54.84474180558981Z" fill="none" stroke="#ccc"/></g><g transform="translate(771.6973629407732,541.9489010250954)" id="Egypt"><path id="p_1385.8185649532613" d="M-1.3074139588824379e-14,71.17230098739275A71.17230098739275,71.17230098739275,0,1,1,1.3074139588824379e-14,-71.17230098739275A71.17230098739275,71.17230098739275,0,1,1,-1.3074139588824379e-14,71.17230098739275Z" fill="none" stroke="#ccc"/></g><g transform="translate(694.4745244328446,623.4296261662801)" id="Democratic Republic of the Congo"><path id="p_1358.1501741186337" d="M-7.20937756236427e-15,39.24602351950902A39.24602351950902,39.24602351950902,0,1,1,7.20937756236427e-15,-39.24602351950902A39.24602351950902,39.24602351950902,0,1,1,-7.20937756236427e-15,39.24602351950902Z" fill="none" stroke="#ccc"/></g><g transform="translate(695.1841764552083,467.57567703888435)" id="Somalia"><path id="p_1197.4486637624384" d="M-6.188534049331814e-15,33.68881026834574A33.68881026834574,33.68881026834574,0,1,1,6.188534049331814e-15,-33.68881026834574A33.68881026834574,33.68881026834574,0,1,1,-6.188534049331814e-15,33.68881026834574Z" fill="none" stroke="#ccc"/></g><g transform="translate(762.7786226374354,645.171563883106)" id="Sudan"><path id="p_1439.54271191485" d="M-5.619755745296083e-15,30.59252539430839A30.59252539430839,30.59252539430839,0,1,1,5.619755745296083e-15,-30.59252539430839A30.59252539430839,30.59252539430839,0,1,1,-5.619755745296083e-15,30.59252539430839Z" fill="none" stroke="#ccc"/></g><g transform="translate(754.462775619788,440.93548941817886)" id="Angola"><path id="p_1225.8566613904466" d="M-5.411419620161758e-15,29.45839635247975A29.45839635247975,29.45839635247975,0,1,1,5.411419620161758e-15,-29.45839635247975A29.45839635247975,29.45839635247975,0,1,1,-5.411419620161758e-15,29.45839635247975Z" fill="none" stroke="#ccc"/></g><g transform="translate(632.1508615367816,457.81650176115005)" id="Tanzania"><path id="p_1119.2204567390745" d="M-5.190009067306023e-15,28.253093441142973A28.253093441142973,28.253093441142973,0,1,1,5.190009067306023e-15,-28.253093441142973A28.253093441142973,28.253093441142973,0,1,1,-5.190009067306023e-15,28.253093441142973Z" fill="none" stroke="#ccc"/></g><g transform="translate(625.8724655022411,624.2153699492352)" id="Ivory Coast"><path id="p_1278.6059478608856" d="M-5.054995242114048e-15,27.518112409409433A27.518112409409433,27.518112409409433,0,1,1,5.054995242114048e-15,-27.518112409409433A27.518112409409433,27.518112409409433,0,1,1,-5.054995242114048e-15,27.518112409409433Z" fill="none" stroke="#ccc"/></g><g transform="translate(810.9387010640116,450.97606911892666)" id="South Africa"><path id="p_1288.9754660941562" d="M-4.787272174683832e-15,26.060695911217927A26.060695911217927,26.060695911217927,0,1,1,4.787272174683832e-15,-26.060695911217927A26.060695911217927,26.060695911217927,0,1,1,-4.787272174683832e-15,26.060695911217927Z" fill="none" stroke="#ccc"/></g><g transform="translate(537.1062871465207,805.2955880246833)" id="Russia"><path id="p_1419.4553474196357" d="M-1.3970796202962603e-14,76.05347224843177A76.05347224843177,76.05347224843177,0,1,1,1.3970796202962603e-14,-76.05347224843177A76.05347224843177,76.05347224843177,0,1,1,-1.3970796202962603e-14,76.05347224843177Z" fill="none" stroke="#ccc"/></g><g transform="translate(664.1893276654584,805.2955880246833)" id="Turkey"><path id="p_1519.6720612904758" d="M-9.035532062796551e-15,49.18714560033386A49.18714560033386,49.18714560033386,0,1,1,9.035532062796551e-15,-49.18714560033386A49.18714560033386,49.18714560033386,0,1,1,-9.035532062796551e-15,49.18714560033386Z" fill="none" stroke="#ccc"/></g><g transform="translate(622.5362865838378,885.1936243003877)" id="United Kingdom"><path id="p_1547.8040164126323" d="M-7.177796739736446e-15,39.07410552840709A39.07410552840709,39.07410552840709,0,1,1,7.177796739736446e-15,-39.07410552840709A39.07410552840709,39.07410552840709,0,1,1,-7.177796739736446e-15,39.07410552840709Z" fill="none" stroke="#ccc"/></g><g transform="translate(619.7093731713273,742.7711533089265)" id="Germany"><path id="p_1389.1827722657504" d="M-4.721425954815994e-15,25.70224578549633A25.70224578549633,25.70224578549633,0,1,1,4.721425954815994e-15,-25.70224578549633A25.70224578549633,25.70224578549633,0,1,1,-4.721425954815994e-15,25.70224578549633Z" fill="none" stroke="#ccc"/></g><g transform="translate(578.1797528223748,711.6801516721238)" id="Spain"><path id="p_1315.193552791668" d="M-4.470018674805925e-15,24.333648297169578A24.333648297169578,24.333648297169578,0,1,1,4.470018674805925e-15,-24.333648297169578A24.333648297169578,24.333648297169578,0,1,1,-4.470018674805925e-15,24.333648297169578Z" fill="none" stroke="#ccc"/></g><g transform="translate(560.949126965675,903.7515232750602)" id="Ukraine"><path id="p_1489.106543049043" d="M-4.299592756332012e-15,23.4058928083077A23.4058928083077,23.4058928083077,0,1,1,4.299592756332012e-15,-23.4058928083077A23.4058928083077,23.4058928083077,0,1,1,-4.299592756332012e-15,23.4058928083077Z" fill="none" stroke="#ccc"/></g><g transform="translate(669.1838982082434,731.1599616567978)" id="Italy"><path id="p_1424.6179713948356" d="M-4.275384928194199e-15,23.27411152979449A23.27411152979449,23.27411152979449,0,1,1,4.275384928194199e-15,-23.27411152979449A23.27411152979449,23.27411152979449,0,1,1,-4.275384928194199e-15,23.27411152979449Z" fill="none" stroke="#ccc"/></g><g transform="translate(683.2887130928757,874.5068661422431)" id="France"><path id="p_1579.5642528816072" d="M-3.815143455556192e-15,20.768673646488352A20.768673646488352,20.768673646488352,0,1,1,3.815143455556192e-15,-20.768673646488352A20.768673646488352,20.768673646488352,0,1,1,-3.815143455556192e-15,20.768673646488352Z" fill="none" stroke="#ccc"/></g><g transform="translate(532.658466813027,708.0082441872639)" id="Belarus"><path id="p_1261.1597804290877" d="M-3.580818762229987e-15,19.493069428796897A19.493069428796897,19.493069428796897,0,1,1,3.580818762229987e-15,-19.493069428796897A19.493069428796897,19.493069428796897,0,1,1,-3.580818762229987e-15,19.493069428796897Z" fill="none" stroke="#ccc"/></g><g transform="translate(549.4018891267077,279.1625473467882)" id="Brazil"><path id="p_912.0221525627801" d="M-1.5147236711061467e-14,82.45771608928422A82.45771608928422,82.45771608928422,0,1,1,1.5147236711061467e-14,-82.45771608928422A82.45771608928422,82.45771608928422,0,1,1,-1.5147236711061467e-14,82.45771608928422Z" fill="none" stroke="#ccc"/></g><g transform="translate(673.2468303508815,279.1625473467882)" id="Peru"><path id="p_992.9541801623872" d="M-7.264262364199581e-15,39.544802464717414A39.544802464717414,39.544802464717414,0,1,1,7.264262364199581e-15,-39.544802464717414A39.544802464717414,39.544802464717414,0,1,1,-7.264262364199581e-15,39.544802464717414Z" fill="none" stroke="#ccc"/></g><g transform="translate(646.0211356931486,352.9787953117568)" id="Colombia"><path id="p_1037.2897477133758" d="M-6.850028200922986e-15,37.28981670847052A37.28981670847052,37.28981670847052,0,1,1,6.850028200922986e-15,-37.28981670847052A37.28981670847052,37.28981670847052,0,1,1,-6.850028200922986e-15,37.28981670847052Z" fill="none" stroke="#ccc"/></g><g transform="translate(644.0183215589717,212.38180902590528)" id="Chile"><path id="p_888.9099063271221" d="M-5.788251900688725e-15,31.509775742245203A31.509775742245203,31.509775742245203,0,1,1,5.788251900688725e-15,-31.509775742245203A31.509775742245203,31.509775742245203,0,1,1,-5.788251900688725e-15,31.509775742245203Z" fill="none" stroke="#ccc"/></g><g transform="translate(595.5327196745095,180.32566171033696)" id="Venezuela"><path id="p_801.6306199229577" d="M-4.5505863950119034e-15,24.772238538111285A24.772238538111285,24.772238538111285,0,1,1,4.5505863950119034e-15,-24.772238538111285A24.772238538111285,24.772238538111285,0,1,1,-4.5505863950119034e-15,24.772238538111285Z" fill="none" stroke="#ccc"/></g><g transform="translate(588.9874570214754,379.8999194198898)" id="Argentina"><path id="p_993.8232544126892" d="M-4.39694945135454e-15,23.93587797132402A23.93587797132402,23.93587797132402,0,1,1,4.39694945135454e-15,-23.93587797132402A23.93587797132402,23.93587797132402,0,1,1,-4.39694945135454e-15,23.93587797132402Z" fill="none" stroke="#ccc"/></g><g transform="translate(307.7654541819158,153.72452449818854)" id="United States"><path id="p_533.9599467542932" d="M-1.3128820145582842e-14,71.4699680741889A71.4699680741889,71.4699680741889,0,1,1,1.3128820145582842e-14,-71.4699680741889A71.4699680741889,71.4699680741889,0,1,1,-1.3128820145582842e-14,71.4699680741889Z" fill="none" stroke="#ccc"/></g><g transform="translate(437.9695654214328,153.72452449818854)" id="Mexico"><path id="p_649.5858104147773" d="M-1.0450839510356785e-14,56.89172049515592A56.89172049515592,56.89172049515592,0,1,1,1.0450839510356785e-14,-56.89172049515592A56.89172049515592,56.89172049515592,0,1,1,-1.0450839510356785e-14,56.89172049515592Z" fill="none" stroke="#ccc"/></g><g transform="translate(384.82293735528356,237.82924968024597)" id="Canada"><path id="p_664.4075853946804" d="M-7.4866452222764e-15,40.75539835915081A40.75539835915081,40.75539835915081,0,1,1,7.4866452222764e-15,-40.75539835915081A40.75539835915081,40.75539835915081,0,1,1,-7.4866452222764e-15,40.75539835915081Z" fill="none" stroke="#ccc"/></g><g transform="translate(382.5258164026463,97.4863502140974)" id="Cuba"><path id="p_501.2510666501299" d="M-3.717825621622462e-15,20.238900033386262A20.238900033386262,20.238900033386262,0,1,1,3.717825621622462e-15,-20.238900033386262A20.238900033386262,20.238900033386262,0,1,1,-3.717825621622462e-15,20.238900033386262Z" fill="none" stroke="#ccc"/></g><g transform="translate(175.3594137567165,541.7718895296641)" id="Shanghai"><path id="p_780.3938522632914" d="M-1.1437444696699342e-14,62.26254897691066A62.26254897691066,62.26254897691066,0,1,1,1.1437444696699342e-14,-62.26254897691066A62.26254897691066,62.26254897691066,0,1,1,-1.1437444696699342e-14,62.26254897691066Z" fill="rgb(248, 142, 83)" stroke="none"/></g><g transform="translate(298.1039734253941,541.7718895296641)" id="Beijing"><path id="p_899.5154509766529" d="M-1.0771917566094821e-14,58.63958802159475A58.63958802159475,58.63958802159475,0,1,1,1.0771917566094821e-14,-58.63958802159475A58.63958802159475,58.63958802159475,0,1,1,-1.0771917566094821e-14,58.63958802159475Z" fill="rgb(248, 142, 83)" stroke="none"/></g><g transform="translate(240.02513144195314,634.9173277846769)" id="Tianjin"><path id="p_925.2294084181375" d="M-9.053865685067678e-15,49.286949191507475A49.286949191507475,49.286949191507475,0,1,1,9.053865685067678e-15,-49.286949191507475A49.286949191507475,49.286949191507475,0,1,1,-9.053865685067678e-15,49.286949191507475Z" fill="rgb(248, 142, 83)" stroke="none"/></g><g transform="translate(239.91989843252856,452.92460277770033)" id="Guangzhou"><path id="p_739.5661954724844" d="M-8.398938979479787e-15,45.72169426225562A45.72169426225562,45.72169426225562,0,1,1,8.398938979479787e-15,-45.72169426225562A45.72169426225562,45.72169426225562,0,1,1,-8.398938979479787e-15,45.72169426225562Z" fill="rgb(248, 142, 83)" stroke="none"/></g><g transform="translate(152.51351358066995,439.281731815516)" id="Shenzhen"><path id="p_633.6958335215496" d="M-7.513316149645633e-15,40.90058812536369A40.90058812536369,40.90058812536369,0,1,1,7.513316149645633e-15,-40.90058812536369A40.90058812536369,40.90058812536369,0,1,1,-7.513316149645633e-15,40.90058812536369Z" fill="rgb(248, 142, 83)" stroke="none"/></g><g transform="translate(414.1404508544274,538.0937147017481)" id="Delhi"><path id="p_1005.0316727958173" d="M-9.515047716725871e-15,51.79750723964177A51.79750723964177,51.79750723964177,0,1,1,9.515047716725871e-15,-51.79750723964177A51.79750723964177,51.79750723964177,0,1,1,-9.515047716725871e-15,51.79750723964177Z" fill="rgb(248, 142, 83)" stroke="none"/></g><g transform="translate(512.3728735722982,538.0937147017481)" id="Mumbai"><path id="p_1096.0590810821031" d="M-8.191508037508226e-15,44.59249280805684A44.59249280805684,44.59249280805684,0,1,1,8.191508037508226e-15,-44.59249280805684A44.59249280805684,44.59249280805684,0,1,1,-8.191508037508226e-15,44.59249280805684Z" fill="rgb(248, 142, 83)" stroke="none"/></g><g transform="translate(373.4181489975278,677.7339637701829)" id="Karachi"><path id="p_1113.4356851856571" d="M-1.1257609620292988e-14,61.283572417946544A61.283572417946544,61.283572417946544,0,1,1,1.1257609620292988e-14,-61.283572417946544A61.283572417946544,61.283572417946544,0,1,1,-1.1257609620292988e-14,61.283572417946544Z" fill="rgb(248, 142, 83)" stroke="none"/></g><g transform="translate(370.21792507530637,418.53207146965497)" id="Tokyo"><path id="p_836.222688050111" d="M-8.5368949349316e-15,46.472691505149726A46.472691505149726,46.472691505149726,0,1,1,8.5368949349316e-15,-46.472691505149726A46.472691505149726,46.472691505149726,0,1,1,-8.5368949349316e-15,46.472691505149726Z" fill="rgb(248, 142, 83)" stroke="none"/></g><g transform="translate(296.8110392791581,362.8647465560516)" id="Jakarta"><path id="p_700.8030315595021" d="M-7.371255455228094e-15,40.127245724292365A40.127245724292365,40.127245724292365,0,1,1,7.371255455228094e-15,-40.127245724292365A40.127245724292365,40.127245724292365,0,1,1,-7.371255455228094e-15,40.127245724292365Z" fill="rgb(248, 142, 83)" stroke="none"/></g><g transform="translate(643.8378974776186,541.9489010250954)" id="Lagos"><path id="p_1239.7891176381318" d="M-9.736368071486364e-15,53.00231913541767A53.00231913541767,53.00231913541767,0,1,1,9.736368071486364e-15,-53.00231913541767A53.00231913541767,53.00231913541767,0,1,1,-9.736368071486364e-15,53.00231913541767Z" fill="rgb(158, 1, 66)" stroke="none"/></g><g transform="translate(744.2976161787811,541.9489010250954)" id="Cairo"><path id="p_1329.1766487591049" d="M-7.702440209540694e-15,41.93013155522846A41.93013155522846,41.93013155522846,0,1,1,7.702440209540694e-15,-41.93013155522846A41.93013155522846,41.93013155522846,0,1,1,-7.702440209540694e-15,41.93013155522846Z" fill="rgb(158, 1, 66)" stroke="none"/></g><g transform="translate(814.5487058310878,541.9489010250954)" id="Alexandria"><path id="p_1383.9761422830893" d="M-4.864028048500545e-15,26.47853542690606A26.47853542690606,26.47853542690606,0,1,1,4.864028048500545e-15,-26.47853542690606A26.47853542690606,26.47853542690606,0,1,1,-4.864028048500545e-15,26.47853542690606Z" fill="rgb(158, 1, 66)" stroke="none"/></g><g transform="translate(694.4745244328446,623.4296261662801)" id="Kinshasa-Brazzaville"><path id="p_1356.3077514484617" d="M-6.870930008508844e-15,37.403600849336875A37.403600849336875,37.403600849336875,0,1,1,6.870930008508844e-15,-37.403600849336875A37.403600849336875,37.403600849336875,0,1,1,-6.870930008508844e-15,37.403600849336875Z" fill="rgb(158, 1, 66)" stroke="none"/></g><g transform="translate(695.1841764552083,467.57567703888435)" id="Mogadishu"><path id="p_1195.6062410922661" d="M-5.8500864954763886e-15,31.846387598173596A31.846387598173596,31.846387598173596,0,1,1,5.8500864954763886e-15,-31.846387598173596A31.846387598173596,31.846387598173596,0,1,1,-5.8500864954763886e-15,31.846387598173596Z" fill="rgb(158, 1, 66)" stroke="none"/></g><g transform="translate(762.7786226374354,645.171563883106)" id="Khartoum-Omdurman"><path id="p_1437.7002892446778" d="M-5.281308191440657e-15,28.750102724136244A28.750102724136244,28.750102724136244,0,1,1,5.281308191440657e-15,-28.750102724136244A28.750102724136244,28.750102724136244,0,1,1,-5.281308191440657e-15,28.750102724136244Z" fill="rgb(158, 1, 66)" stroke="none"/></g><g transform="translate(754.462775619788,440.93548941817886)" id="Luanda"><path id="p_1224.0142387202745" d="M-5.072972066306333e-15,27.615973682307605A27.615973682307605,27.615973682307605,0,1,1,5.072972066306333e-15,-27.615973682307605A27.615973682307605,27.615973682307605,0,1,1,-5.072972066306333e-15,27.615973682307605Z" fill="rgb(158, 1, 66)" stroke="none"/></g><g transform="translate(632.1508615367816,457.81650176115005)" id="Dar es Salaam"><path id="p_1117.3780340689025" d="M-4.8515615134505975e-15,26.410670770970828A26.410670770970828,26.410670770970828,0,1,1,4.8515615134505975e-15,-26.410670770970828A26.410670770970828,26.410670770970828,0,1,1,-4.8515615134505975e-15,26.410670770970828Z" fill="rgb(158, 1, 66)" stroke="none"/></g><g transform="translate(625.8724655022411,624.2153699492352)" id="Abidjan"><path id="p_1276.7635251907134" d="M-4.716547688258622e-15,25.675689739237285A25.675689739237285,25.675689739237285,0,1,1,4.716547688258622e-15,-25.675689739237285A25.675689739237285,25.675689739237285,0,1,1,-4.716547688258622e-15,25.675689739237285Z" fill="rgb(158, 1, 66)" stroke="none"/></g><g transform="translate(810.9387010640116,450.97606911892666)" id="Greater Johannesburg"><path id="p_1287.1330434239842" d="M-4.448824620828405e-15,24.218273241045775A24.218273241045775,24.218273241045775,0,1,1,4.448824620828405e-15,-24.218273241045775A24.218273241045775,24.218273241045775,0,1,1,-4.448824620828405e-15,24.218273241045775Z" fill="rgb(158, 1, 66)" stroke="none"/></g><g transform="translate(507.28613243532334,805.2955880246833)" id="Moscow"><path id="p_1357.972615327069" d="M-8.154475096535174e-15,44.390894867062286A44.390894867062286,44.390894867062286,0,1,1,8.154475096535174e-15,-44.390894867062286A44.390894867062286,44.390894867062286,0,1,1,-8.154475096535174e-15,44.390894867062286Z" fill="rgb(251, 248, 176)" stroke="none"/></g><g transform="translate(582.418393348669,805.2955880246833)" id="Saint Petersburg"><path id="p_1417.6129247494637" d="M-5.30864977564429e-15,28.89894337611127A28.89894337611127,28.89894337611127,0,1,1,5.30864977564429e-15,-28.89894337611127A28.89894337611127,28.89894337611127,0,1,1,-5.30864977564429e-15,28.89894337611127Z" fill="rgb(251, 248, 176)" stroke="none"/></g><g transform="translate(664.1893276654584,805.2955880246833)" id="Istanbul"><path id="p_1517.8296386203035" d="M-8.697084508941126e-15,47.344722930161716A47.344722930161716,47.344722930161716,0,1,1,8.697084508941126e-15,-47.344722930161716A47.344722930161716,47.344722930161716,0,1,1,-8.697084508941126e-15,47.344722930161716Z" fill="rgb(251, 248, 176)" stroke="none"/></g><g transform="translate(622.5362865838378,885.1936243003877)" id="London"><path id="p_1545.9615937424603" d="M-6.839349185881019e-15,37.23168285823494A37.23168285823494,37.23168285823494,0,1,1,6.839349185881019e-15,-37.23168285823494A37.23168285823494,37.23168285823494,0,1,1,-6.839349185881019e-15,37.23168285823494Z" fill="rgb(251, 248, 176)" stroke="none"/></g><g transform="translate(619.7093731713273,742.7711533089265)" id="Berlin"><path id="p_1387.3403495955781" d="M-4.382978400960568e-15,23.859823115324183A23.859823115324183,23.859823115324183,0,1,1,4.382978400960568e-15,-23.859823115324183A23.859823115324183,23.859823115324183,0,1,1,-4.382978400960568e-15,23.859823115324183Z" fill="rgb(251, 248, 176)" stroke="none"/></g><g transform="translate(578.1797528223748,711.6801516721238)" id="Madrid"><path id="p_1313.351130121496" d="M-4.1315711209504985e-15,22.49122562699743A22.49122562699743,22.49122562699743,0,1,1,4.1315711209504985e-15,-22.49122562699743A22.49122562699743,22.49122562699743,0,1,1,-4.1315711209504985e-15,22.49122562699743Z" fill="rgb(251, 248, 176)" stroke="none"/></g><g transform="translate(560.949126965675,903.7515232750602)" id="Kiev"><path id="p_1487.2641203788708" d="M-3.961145202476585e-15,21.56347013813555A21.56347013813555,21.56347013813555,0,1,1,3.961145202476585e-15,-21.56347013813555A21.56347013813555,21.56347013813555,0,1,1,-3.961145202476585e-15,21.56347013813555Z" fill="rgb(251, 248, 176)" stroke="none"/></g><g transform="translate(669.1838982082434,731.1599616567978)" id="Rome"><path id="p_1422.7755487246634" d="M-3.936937374338772e-15,21.431688859622337A21.431688859622337,21.431688859622337,0,1,1,3.936937374338772e-15,-21.431688859622337A21.431688859622337,21.431688859622337,0,1,1,-3.936937374338772e-15,21.431688859622337Z" fill="rgb(251, 248, 176)" stroke="none"/></g><g transform="translate(683.2887130928757,874.5068661422431)" id="Paris"><path id="p_1577.721830211435" d="M-3.4766959017007654e-15,18.9262509763162A18.9262509763162,18.9262509763162,0,1,1,3.4766959017007654e-15,-18.9262509763162A18.9262509763162,18.9262509763162,0,1,1,-3.4766959017007654e-15,18.9262509763162Z" fill="rgb(251, 248, 176)" stroke="none"/></g><g transform="translate(532.658466813027,708.0082441872639)" id="Minsk"><path id="p_1259.3173577589157" d="M-3.2423712083745596e-15,17.650646758624745A17.650646758624745,17.650646758624745,0,1,1,3.2423712083745596e-15,-17.650646758624745A17.650646758624745,17.650646758624745,0,1,1,-3.2423712083745596e-15,17.650646758624745Z" fill="rgb(251, 248, 176)" stroke="none"/></g><g transform="translate(519.2030570259045,288.42042054739653)" id="São Paulo"><path id="p_852.3573322702566" d="M-8.03377877535033e-15,43.733854696955675A43.733854696955675,43.733854696955675,0,1,1,8.03377877535033e-15,-43.733854696955675A43.733854696955675,43.733854696955675,0,1,1,-8.03377877535033e-15,43.733854696955675Z" fill="rgb(94, 79, 162)" stroke="none"/></g><g transform="translate(596.9518277426218,288.42042054739653)" id="Rio de Janeiro"><path id="p_918.5447416396079" d="M-5.909991150174635e-15,32.17249334958946A32.17249334958946,32.17249334958946,0,1,1,5.909991150174635e-15,-32.17249334958946A32.17249334958946,32.17249334958946,0,1,1,-5.909991150174635e-15,32.17249334958946Z" fill="rgb(94, 79, 162)" stroke="none"/></g><g transform="translate(567.2080132122493,335.42080526893244)" id="Salvador"><path id="p_925.2352173217287" d="M-3.9690310771765386e-15,21.606398840546966A21.606398840546966,21.606398840546966,0,1,1,3.9690310771765386e-15,-21.606398840546966A21.606398840546966,21.606398840546966,0,1,1,-3.9690310771765386e-15,21.606398840546966Z" fill="rgb(94, 79, 162)" stroke="none"/></g><g transform="translate(567.2045703293392,241.44961811251272)" id="Brasília"><path id="p_831.2374343070751" d="M-3.9647779446084e-15,21.58324586522325A21.58324586522325,21.58324586522325,0,1,1,3.9647779446084e-15,-21.58324586522325A21.58324586522325,21.58324586522325,0,1,1,-3.9647779446084e-15,21.58324586522325Z" fill="rgb(94, 79, 162)" stroke="none"/></g><g transform="translate(527.4984285623683,223.01834758945367)" id="Fortaleza"><path id="p_771.8665508136459" d="M-3.738192960445884e-15,20.34977466182391A20.34977466182391,20.34977466182391,0,1,1,3.738192960445884e-15,-20.34977466182391A20.34977466182391,20.34977466182391,0,1,1,-3.738192960445884e-15,20.34977466182391Z" fill="rgb(94, 79, 162)" stroke="none"/></g><g transform="translate(673.2468303508815,279.1625473467882)" id="Lima"><path id="p_991.111757492215" d="M-6.925814810344157e-15,37.70237979454527A37.70237979454527,37.70237979454527,0,1,1,6.925814810344157e-15,-37.70237979454527A37.70237979454527,37.70237979454527,0,1,1,-6.925814810344157e-15,37.70237979454527Z" fill="rgb(94, 79, 162)" stroke="none"/></g><g transform="translate(646.0211356931486,352.9787953117568)" id="Bogotá"><path id="p_1035.4473250432038" d="M-6.51158064706756e-15,35.44739403829837A35.44739403829837,35.44739403829837,0,1,1,6.51158064706756e-15,-35.44739403829837A35.44739403829837,35.44739403829837,0,1,1,-6.51158064706756e-15,35.44739403829837Z" fill="rgb(94, 79, 162)" stroke="none"/></g><g transform="translate(644.0183215589717,212.38180902590528)" id="Santiago"><path id="p_887.06748365695" d="M-5.4498043468333e-15,29.66735307207306A29.66735307207306,29.66735307207306,0,1,1,5.4498043468333e-15,-29.66735307207306A29.66735307207306,29.66735307207306,0,1,1,-5.4498043468333e-15,29.66735307207306Z" fill="rgb(94, 79, 162)" stroke="none"/></g><g transform="translate(595.5327196745095,180.32566171033696)" id="Caracas"><path id="p_799.7881972527856" d="M-4.212138841156477e-15,22.929815867939134A22.929815867939134,22.929815867939134,0,1,1,4.212138841156477e-15,-22.929815867939134A22.929815867939134,22.929815867939134,0,1,1,-4.212138841156477e-15,22.929815867939134Z" fill="rgb(94, 79, 162)" stroke="none"/></g><g transform="translate(588.9874570214754,379.8999194198898)" id="Buenos Aires"><path id="p_991.980831742517" d="M-4.058501897499114e-15,22.09345530115187A22.09345530115187,22.09345530115187,0,1,1,4.058501897499114e-15,-22.09345530115187A22.09345530115187,22.09345530115187,0,1,1,-4.058501897499114e-15,22.09345530115187Z" fill="rgb(94, 79, 162)" stroke="none"/></g><g transform="translate(282.2679218133279,157.18455634496485)" id="New York City"><path id="p_477.4185655334166" d="M-6.790560087142015e-15,36.96608737512382A36.96608737512382,36.96608737512382,0,1,1,6.790560087142015e-15,-36.96608737512382A36.96608737512382,36.96608737512382,0,1,1,-6.790560087142015e-15,36.96608737512382Z" fill="rgb(137, 207, 165)" stroke="none"/></g><g transform="translate(346.27108397957426,157.18455634496485)" id="Los Angeles"><path id="p_529.6502924454895" d="M-4.628182511332945e-15,25.19465212095039A25.19465212095039,25.19465212095039,0,1,1,4.628182511332945e-15,-25.19465212095039A25.19465212095039,25.19465212095039,0,1,1,-4.628182511332945e-15,25.19465212095039Z" fill="rgb(137, 207, 165)" stroke="none"/></g><g transform="translate(324.1596563792957,199.66283783078862)" id="Chicago"><path id="p_545.6740363180876" d="M-3.830366144977866e-15,20.851542108003258A20.851542108003258,20.851542108003258,0,1,1,3.830366144977866e-15,-20.851542108003258A20.851542108003258,20.851542108003258,0,1,1,-3.830366144977866e-15,20.851542108003258Z" fill="rgb(137, 207, 165)" stroke="none"/></g><g transform="translate(323.8479138935951,116.79826786944643)" id="Houston"><path id="p_460.80273048786046" d="M-3.5190009117839723e-15,19.156548724818933A19.156548724818933,19.156548724818933,0,1,1,3.5190009117839723e-15,-19.156548724818933A19.156548724818933,19.156548724818933,0,1,1,-3.5190009117839723e-15,19.156548724818933Z" fill="rgb(137, 207, 165)" stroke="none"/></g><g transform="translate(289.6825320375351,103.05423670764688)" id="Philadelphia"><path id="p_409.5640340564701" d="M-2.9074214704087474e-15,15.827265311288162A15.827265311288162,15.827265311288162,0,1,1,2.9074214704087474e-15,-15.827265311288162A15.827265311288162,15.827265311288162,0,1,1,-2.9074214704087474e-15,15.827265311288162Z" fill="rgb(137, 207, 165)" stroke="none"/></g><g transform="translate(420.67398982465147,153.72452449818854)" id="Mexico City"><path id="p_613.1522365510425" d="M-6.935246262399969e-15,37.75372222820249A37.75372222820249,37.75372222820249,0,1,1,6.935246262399969e-15,-37.75372222820249A37.75372222820249,37.75372222820249,0,1,1,-6.935246262399969e-15,37.75372222820249Z" fill="rgb(137, 207, 165)" stroke="none"/></g><g transform="translate(476.64449898472134,153.72452449818854)" id="Ecatepec de Morelos"><path id="p_647.743387744605" d="M-3.007921917173677e-15,16.374364261695206A16.374364261695206,16.374364261695206,0,1,1,3.007921917173677e-15,-16.374364261695206A16.374364261695206,16.374364261695206,0,1,1,-3.007921917173677e-15,16.374364261695206Z" fill="rgb(137, 207, 165)" stroke="none"/></g><g transform="translate(367.16365862079596,237.82924968024597)" id="Toronto"><path id="p_627.2466052555329" d="M-3.9042407918048005e-15,21.25369695449107A21.25369695449107,21.25369695449107,0,1,1,3.9042407918048005e-15,-21.25369695449107A21.25369695449107,21.25369695449107,0,1,1,-3.9042407918048005e-15,21.25369695449107Z" fill="rgb(137, 207, 165)" stroke="none"/></g><g transform="translate(406.9978456448607,237.82924968024597)" id="Montreal"><path id="p_662.5651627245082" d="M-3.074733099688459e-15,16.738067399401515A16.738067399401515,16.738067399401515,0,1,1,3.074733099688459e-15,-16.738067399401515A16.738067399401515,16.738067399401515,0,1,1,-3.074733099688459e-15,16.738067399401515Z" fill="rgb(137, 207, 165)" stroke="none"/></g><g transform="translate(382.5258164026463,97.4863502140974)" id="Havana"><path id="p_499.4086439799578" d="M-3.379378067767035e-15,18.39647736321411A18.39647736321411,18.39647736321411,0,1,1,3.379378067767035e-15,-18.39647736321411A18.39647736321411,18.39647736321411,0,1,1,-3.379378067767035e-15,18.39647736321411Z" fill="rgb(137, 207, 165)" stroke="none"/></g></g><g id="labels"><g transform="translate(175.3594137567165,541.7718895296641)"><text text-anchor="middle" dominant-baseline="text-before-edge" transform="translate(0,-5.5)"><tspan x="0" y="0" dy="0" style="font-family: Arial, sans-serif; font-size: 10px; fill: black; font-weight: bold;">Shanghai</tspan></text></g><g transform="translate(298.1039734253941,541.7718895296641)"><text text-anchor="middle" dominant-baseline="text-before-edge" transform="translate(0,-5.5)"><tspan x="0" y="0" dy="0" style="font-family: Arial, sans-serif; font-size: 10px; fill: black; font-weight: bold;">Beijing</tspan></text></g><g transform="translate(240.02513144195314,634.9173277846769)"><text text-anchor="middle" dominant-baseline="text-before-edge" transform="translate(0,-5.5)"><tspan x="0" y="0" dy="0" style="font-family: Arial, sans-serif; font-size: 10px; fill: black; font-weight: bold;">Tianjin</tspan></text></g><g transform="translate(239.91989843252856,452.92460277770033)"><text text-anchor="middle" dominant-baseline="text-before-edge" transform="translate(0,-5.5)"><tspan x="0" y="0" dy="0" style="font-family: Arial, sans-serif; font-size: 10px; fill: black; font-weight: bold;">Guangzhou</tspan></text></g><g transform="translate(152.51351358066995,439.281731815516)"><text text-anchor="middle" dominant-baseline="text-before-edge" transform="translate(0,-5.5)"><tspan x="0" y="0" dy="0" style="font-family: Arial, sans-serif; font-size: 10px; fill: black; font-weight: bold;">Shenzhen</tspan></text></g><g transform="translate(414.1404508544274,538.0937147017481)"><text text-anchor="middle" dominant-baseline="text-before-edge" transform="translate(0,-5.5)"><tspan x="0" y="0" dy="0" style="font-family: Arial, sans-serif; font-size: 10px; fill: black; font-weight: bold;">Delhi</tspan></text></g><g transform="translate(512.3728735722982,538.0937147017481)"><text text-anchor="middle" dominant-baseline="text-before-edge" transform="translate(0,-5.5)"><tspan x="0" y="0" dy="0" style="font-family: Arial, sans-serif; font-size: 10px; fill: black; font-weight: bold;">Mumbai</tspan></text></g><g transform="translate(373.4181489975278,677.7339637701829)"><text text-anchor="middle" dominant-baseline="text-before-edge" transform="translate(0,-5.5)"><tspan x="0" y="0" dy="0" style="font-family: Arial, sans-serif; font-size: 10px; fill: black; font-weight: bold;">Karachi</tspan></text></g><g transform="translate(370.21792507530637,418.53207146965497)"><text text-anchor="middle" dominant-baseline="text-before-edge" transform="translate(0,-5.5)"><tspan x="0" y="0" dy="0" style="font-family: Arial, sans-serif; font-size: 10px; fill: black; font-weight: bold;">Tokyo</tspan></text></g><g transform="translate(296.8110392791581,362.8647465560516)"><text text-anchor="middle" dominant-baseline="text-before-edge" transform="translate(0,-5.5)"><tspan x="0" y="0" dy="0" style="font-family: Arial, sans-serif; font-size: 10px; fill: black; font-weight: bold;">Jakarta</tspan></text></g><g transform="translate(643.8378974776186,541.9489010250954)"><text text-anchor="middle" dominant-baseline="text-before-edge" transform="translate(0,-5.5)"><tspan x="0" y="0" dy="0" style="font-family: Arial, sans-serif; font-size: 10px; fill: black; font-weight: bold;">Lagos</tspan></text></g><g transform="translate(744.2976161787811,541.9489010250954)"><text text-anchor="middle" dominant-baseline="text-before-edge" transform="translate(0,-5.5)"><tspan x="0" y="0" dy="0" style="font-family: Arial, sans-serif; font-size: 10px; fill: black; font-weight: bold;">Cairo</tspan></text></g><g transform="translate(814.5487058310878,541.9489010250954)"><text text-anchor="middle" dominant-baseline="text-before-edge" transform="translate(0,-5.5)"><tspan x="0" y="0" dy="0" style="font-family: Arial, sans-serif; font-size: 10px; fill: black; font-weight: bold;">Alexandria</tspan></text></g><g transform="translate(694.4745244328446,623.4296261662801)"><text text-anchor="middle" dominant-baseline="text-before-edge" transform="translate(0,-5.5)"><tspan x="0" y="0" dy="0" style="font-family: Arial, sans-serif; font-size: 10px; fill: black; font-weight: bold;">Kinshasa-Brazzaville</tspan></text></g><g transform="translate(695.1841764552083,467.57567703888435)"><text text-anchor="middle" dominant-baseline="text-before-edge" transform="translate(0,-5.5)"><tspan x="0" y="0" dy="0" style="font-family: Arial, sans-serif; font-size: 10px; fill: black; font-weight: bold;">Mogadishu</tspan></text></g><g transform="translate(762.7786226374354,645.171563883106)"><text text-anchor="middle" dominant-baseline="text-before-edge" transform="translate(0,-5.5)"><tspan x="0" y="0" dy="0" style="font-family: Arial, sans-serif; font-size: 10px; fill: black; font-weight: bold;">Khartoum-Omdurman</tspan></text></g><g transform="translate(754.462775619788,440.93548941817886)"><text text-anchor="middle" dominant-baseline="text-before-edge" transform="translate(0,-5.5)"><tspan x="0" y="0" dy="0" style="font-family: Arial, sans-serif; font-size: 10px; fill: black; font-weight: bold;">Luanda</tspan></text></g><g transform="translate(632.1508615367816,457.81650176115005)"><text text-anchor="middle" dominant-baseline="text-before-edge" transform="translate(0,-5.5)"><tspan x="0" y="0" dy="0" style="font-family: Arial, sans-serif; font-size: 10px; fill: black; font-weight: bold;">Dar es Salaam</tspan></text></g><g transform="translate(625.8724655022411,624.2153699492352)"><text text-anchor="middle" dominant-baseline="text-before-edge" transform="translate(0,-5.5)"><tspan x="0" y="0" dy="0" style="font-family: Arial, sans-serif; font-size: 10px; fill: black; font-weight: bold;">Abidjan</tspan></text></g><g transform="translate(810.9387010640116,450.97606911892666)"><text text-anchor="middle" dominant-baseline="text-before-edge" transform="translate(0,-5.5)"><tspan x="0" y="0" dy="0" style="font-family: Arial, sans-serif; font-size: 10px; fill: black; font-weight: bold;">Greater Johannesburg</tspan></text></g><g transform="translate(507.28613243532334,805.2955880246833)"><text text-anchor="middle" dominant-baseline="text-before-edge" transform="translate(0,-5.5)"><tspan x="0" y="0" dy="0" style="font-family: Arial, sans-serif; font-size: 10px; fill: black; font-weight: bold;">Moscow</tspan></text></g><g transform="translate(582.418393348669,805.2955880246833)"><text text-anchor="middle" dominant-baseline="text-before-edge" transform="translate(0,-5.5)"><tspan x="0" y="0" dy="0" style="font-family: Arial, sans-serif; font-size: 10px; fill: black; font-weight: bold;">Saint Petersburg</tspan></text></g><g transform="translate(664.1893276654584,805.2955880246833)"><text text-anchor="middle" dominant-baseline="text-before-edge" transform="translate(0,-5.5)"><tspan x="0" y="0" dy="0" style="font-family: Arial, sans-serif; font-size: 10px; fill: black; font-weight: bold;">Istanbul</tspan></text></g><g transform="translate(622.5362865838378,885.1936243003877)"><text text-anchor="middle" dominant-baseline="text-before-edge" transform="translate(0,-5.5)"><tspan x="0" y="0" dy="0" style="font-family: Arial, sans-serif; font-size: 10px; fill: black; font-weight: bold;">London</tspan></text></g><g transform="translate(619.7093731713273,742.7711533089265)"><text text-anchor="middle" dominant-baseline="text-before-edge" transform="translate(0,-5.5)"><tspan x="0" y="0" dy="0" style="font-family: Arial, sans-serif; font-size: 10px; fill: black; font-weight: bold;">Berlin</tspan></text></g><g transform="translate(578.1797528223748,711.6801516721238)"><text text-anchor="middle" dominant-baseline="text-before-edge" transform="translate(0,-5.5)"><tspan x="0" y="0" dy="0" style="font-family: Arial, sans-serif; font-size: 10px; fill: black; font-weight: bold;">Madrid</tspan></text></g><g transform="translate(560.949126965675,903.7515232750602)"><text text-anchor="middle" dominant-baseline="text-before-edge" transform="translate(0,-5.5)"><tspan x="0" y="0" dy="0" style="font-family: Arial, sans-serif; font-size: 10px; fill: black; font-weight: bold;">Kiev</tspan></text></g><g transform="translate(669.1838982082434,731.1599616567978)"><text text-anchor="middle" dominant-baseline="text-before-edge" transform="translate(0,-5.5)"><tspan x="0" y="0" dy="0" style="font-family: Arial, sans-serif; font-size: 10px; fill: black; font-weight: bold;">Rome</tspan></text></g><g transform="translate(683.2887130928757,874.5068661422431)"><text text-anchor="middle" dominant-baseline="text-before-edge" transform="translate(0,-5.5)"><tspan x="0" y="0" dy="0" style="font-family: Arial, sans-serif; font-size: 10px; fill: black; font-weight: bold;">Paris</tspan></text></g><g transform="translate(532.658466813027,708.0082441872639)"><text text-anchor="middle" dominant-baseline="text-before-edge" transform="translate(0,-5.5)"><tspan x="0" y="0" dy="0" style="font-family: Arial, sans-serif; font-size: 10px; fill: black; font-weight: bold;">Minsk</tspan></text></g><g transform="translate(519.2030570259045,288.42042054739653)"><text text-anchor="middle" dominant-baseline="text-before-edge" transform="translate(0,-5.5)"><tspan x="0" y="0" dy="0" style="font-family: Arial, sans-serif; font-size: 10px; fill: black; font-weight: bold;">São Paulo</tspan></text></g><g transform="translate(596.9518277426218,288.42042054739653)"><text text-anchor="middle" dominant-baseline="text-before-edge" transform="translate(0,-5.5)"><tspan x="0" y="0" dy="0" style="font-family: Arial, sans-serif; font-size: 10px; fill: black; font-weight: bold;">Rio de Janeiro</tspan></text></g><g transform="translate(567.2080132122493,335.42080526893244)"><text text-anchor="middle" dominant-baseline="text-before-edge" transform="translate(0,-5.5)"><tspan x="0" y="0" dy="0" style="font-family: Arial, sans-serif; font-size: 10px; fill: black; font-weight: bold;">Salvador</tspan></text></g><g transform="translate(567.2045703293392,241.44961811251272)"><text text-anchor="middle" dominant-baseline="text-before-edge" transform="translate(0,-5.5)"><tspan x="0" y="0" dy="0" style="font-family: Arial, sans-serif; font-size: 10px; fill: black; font-weight: bold;">Brasília</tspan></text></g><g transform="translate(527.4984285623683,223.01834758945367)"><text text-anchor="middle" dominant-baseline="text-before-edge" transform="translate(0,-5.5)"><tspan x="0" y="0" dy="0" style="font-family: Arial, sans-serif; font-size: 10px; fill: black; font-weight: bold;">Fortaleza</tspan></text></g><g transform="translate(673.2468303508815,279.1625473467882)"><text text-anchor="middle" dominant-baseline="text-before-edge" transform="translate(0,-5.5)"><tspan x="0" y="0" dy="0" style="font-family: Arial, sans-serif; font-size: 10px; fill: black; font-weight: bold;">Lima</tspan></text></g><g transform="translate(646.0211356931486,352.9787953117568)"><text text-anchor="middle" dominant-baseline="text-before-edge" transform="translate(0,-5.5)"><tspan x="0" y="0" dy="0" style="font-family: Arial, sans-serif; font-size: 10px; fill: black; font-weight: bold;">Bogotá</tspan></text></g><g transform="translate(644.0183215589717,212.38180902590528)"><text text-anchor="middle" dominant-baseline="text-before-edge" transform="translate(0,-5.5)"><tspan x="0" y="0" dy="0" style="font-family: Arial, sans-serif; font-size: 10px; fill: black; font-weight: bold;">Santiago</tspan></text></g><g transform="translate(595.5327196745095,180.32566171033696)"><text text-anchor="middle" dominant-baseline="text-before-edge" transform="translate(0,-5.5)"><tspan x="0" y="0" dy="0" style="font-family: Arial, sans-serif; font-size: 10px; fill: black; font-weight: bold;">Caracas</tspan></text></g><g transform="translate(588.9874570214754,379.8999194198898)"><text text-anchor="middle" dominant-baseline="text-before-edge" transform="translate(0,-5.5)"><tspan x="0" y="0" dy="0" style="font-family: Arial, sans-serif; font-size: 10px; fill: black; font-weight: bold;">Buenos Aires</tspan></text></g><g transform="translate(282.2679218133279,157.18455634496485)"><text text-anchor="middle" dominant-baseline="text-before-edge" transform="translate(0,-5.5)"><tspan x="0" y="0" dy="0" style="font-family: Arial, sans-serif; font-size: 10px; fill: black; font-weight: bold;">New York City</tspan></text></g><g transform="translate(346.27108397957426,157.18455634496485)"><text text-anchor="middle" dominant-baseline="text-before-edge" transform="translate(0,-5.5)"><tspan x="0" y="0" dy="0" style="font-family: Arial, sans-serif; font-size: 10px; fill: black; font-weight: bold;">Los Angeles</tspan></text></g><g transform="translate(324.1596563792957,199.66283783078862)"><text text-anchor="middle" dominant-baseline="text-before-edge" transform="translate(0,-5.5)"><tspan x="0" y="0" dy="0" style="font-family: Arial, sans-serif; font-size: 10px; fill: black; font-weight: bold;">Chicago</tspan></text></g><g transform="translate(323.8479138935951,116.79826786944643)"><text text-anchor="middle" dominant-baseline="text-before-edge" transform="translate(0,-5.5)"><tspan x="0" y="0" dy="0" style="font-family: Arial, sans-serif; font-size: 10px; fill: black; font-weight: bold;">Houston</tspan></text></g><g transform="translate(289.6825320375351,103.05423670764688)"><text text-anchor="middle" dominant-baseline="text-before-edge" transform="translate(0,-5.5)"><tspan x="0" y="0" dy="0" style="font-family: Arial, sans-serif; font-size: 10px; fill: black; font-weight: bold;">Philadelphia</tspan></text></g><g transform="translate(420.67398982465147,153.72452449818854)"><text text-anchor="middle" dominant-baseline="text-before-edge" transform="translate(0,-5.5)"><tspan x="0" y="0" dy="0" style="font-family: Arial, sans-serif; font-size: 10px; fill: black; font-weight: bold;">Mexico City</tspan></text></g><g transform="translate(476.64449898472134,153.72452449818854)"><text text-anchor="middle" dominant-baseline="text-before-edge" transform="translate(0,-5.5)"><tspan x="0" y="0" dy="0" style="font-family: Arial, sans-serif; font-size: 10px; fill: black; font-weight: bold;">Ecatepec de Morelos</tspan></text></g><g transform="translate(367.16365862079596,237.82924968024597)"><text text-anchor="middle" dominant-baseline="text-before-edge" transform="translate(0,-5.5)"><tspan x="0" y="0" dy="0" style="font-family: Arial, sans-serif; font-size: 10px; fill: black; font-weight: bold;">Toronto</tspan></text></g><g transform="translate(406.9978456448607,237.82924968024597)"><text text-anchor="middle" dominant-baseline="text-before-edge" transform="translate(0,-5.5)"><tspan x="0" y="0" dy="0" style="font-family: Arial, sans-serif; font-size: 10px; fill: black; font-weight: bold;">Montreal</tspan></text></g><g transform="translate(382.5258164026463,97.4863502140974)"><text text-anchor="middle" dominant-baseline="text-before-edge" transform="translate(0,-5.5)"><tspan x="0" y="0" dy="0" style="font-family: Arial, sans-serif; font-size: 10px; fill: black; font-weight: bold;">Havana</tspan></text></g></g></g></svg>